<?xml version="1.0" encoding="utf-8"?>
<!-- Generator: Adobe Illustrator 20.1.0, SVG Export Plug-In . SVG Version: 6.00 Build 0)  -->
<svg version="1.1" id="Layer_1" xmlns="http://www.w3.org/2000/svg" xmlns:xlink="http://www.w3.org/1999/xlink" x="0px" y="0px"
	 viewBox="0 0 1280 1118" style="enable-background:new 0 0 1280 1118;" xml:space="preserve">
<style type="text/css">
	.st0{fill:#FFFFFF;}
</style>
<g transform="translate(0.000000,1118.000000) scale(0.100000,-0.100000)">
	<path class="st0" d="M6550,10001c-4,13-10,95-14,181l-8,156l52,7c76,10,181,67,234,126c120,133,147,313,71,474
		c-81,170-284,267-468,224c-137-32-262-153-302-293c-23-79-16-199,16-281c35-90,140-191,233-225l68-25l-7-165c-4-91-8-167-10-168
		l-30-450l-2-104c-2-78-357-6694-413-7683c-5-93-14-260-20-370s-15-222-20-249c-33-161-187-303-395-365c-98-29-184-42-645-101
		c-628-80-891-129-1076-203c-228-92-420-252-505-422l-30-60l1601-3c880-1,2320-1,3201,0l1600,3l-37,73c-26,54-60,98-123,162
		c-251,254-497,332-1411,445c-582,72-673,89-807,155c-113,56-192,131-240,226l-36,75l-8,247c-8,259-11,313-59,1112
		c-61,1012-99,1698-145,2595c-9,171-27,508-41,750c-21,383-46,831-145,2635c-11,206-28,524-39,705c-10,182-17,332-15,333"/>
</g>
</svg>
