<?xml version="1.0" encoding="utf-8"?>
<!-- Generator: Adobe Illustrator 20.1.0, SVG Export Plug-In . SVG Version: 6.00 Build 0)  -->
<svg version="1.1" id="Capa_1" xmlns="http://www.w3.org/2000/svg" xmlns:xlink="http://www.w3.org/1999/xlink" x="0px" y="0px"
	 viewBox="0 0 411.4 411.4" style="enable-background:new 0 0 411.4 411.4;" xml:space="preserve">
<style type="text/css">
	.st0{fill:#FFFFFF;}
</style>
<g>
	<path class="st0" d="M205.7,45.7c-88.2,0-160,71.8-160,160s71.8,160,160,160s160-71.8,160-160S293.9,45.7,205.7,45.7z M205.7,233.4
		c-15.3,0-27.7-12.4-27.7-27.7c0-15.3,12.4-27.7,27.7-27.7c15.3,0,27.7,12.4,27.7,27.7C233.4,220.9,220.9,233.4,205.7,233.4z
		 M227.9,177.8c-0.3-0.3-0.7-0.5-1-0.8l19.1-33c3.2,2.1,6.1,4.4,8.9,6.9L227.9,177.8z M219.9,173c-0.4-0.2-0.8-0.3-1.2-0.5l9.9-36.9
		c3.6,1.2,7.1,2.6,10.4,4.3L219.9,173z M211,170.4c-0.4-0.1-0.9-0.1-1.3-0.2v-38.2c3.8,0.2,7.5,0.7,11.2,1.5L211,170.4z
		 M201.7,170.3c-0.4,0-0.9,0.1-1.3,0.2l-9.9-36.9c3.6-0.8,7.4-1.3,11.2-1.5V170.3z M192.7,172.5c-0.4,0.2-0.8,0.3-1.2,0.5l-19.1-33
		c3.3-1.7,6.8-3.1,10.4-4.3L192.7,172.5z M184.5,177c-0.4,0.3-0.7,0.5-1,0.8l-27-27c2.8-2.5,5.8-4.8,8.9-6.9L184.5,177z
		 M177.8,183.5c-0.3,0.3-0.5,0.7-0.8,1l-33-19.1c2.1-3.2,4.4-6.1,6.9-8.9L177.8,183.5z M173,191.4c-0.2,0.4-0.3,0.8-0.5,1.2
		l-36.9-9.9c1.2-3.6,2.6-7.1,4.3-10.4L173,191.4z M170.4,200.4c-0.1,0.4-0.1,0.9-0.2,1.3h-38.2c0.2-3.8,0.7-7.5,1.5-11.2
		L170.4,200.4z M170.3,209.7c0,0.4,0.1,0.9,0.2,1.3l-36.9,9.9c-0.8-3.6-1.3-7.4-1.5-11.2L170.3,209.7L170.3,209.7z M172.5,218.7
		c0.2,0.4,0.3,0.8,0.5,1.2L140,239c-1.7-3.3-3.2-6.8-4.3-10.4L172.5,218.7z M177,226.9c0.3,0.4,0.5,0.7,0.8,1l-27,27
		c-2.5-2.8-4.8-5.8-6.9-8.9L177,226.9z M183.5,233.6c0.3,0.3,0.7,0.5,1,0.8l-19.1,33c-3.2-2.1-6.1-4.4-8.9-6.9L183.5,233.6z
		 M191.4,238.4c0.4,0.2,0.8,0.3,1.2,0.5l-9.9,36.9c-3.6-1.2-7.1-2.6-10.4-4.3L191.4,238.4z M200.4,241c0.4,0.1,0.9,0.1,1.3,0.2v38.2
		c-3.8-0.2-7.5-0.7-11.2-1.5L200.4,241z M209.7,241.1c0.4,0,0.9-0.1,1.3-0.2l9.9,36.9c-3.6,0.8-7.4,1.3-11.2,1.5L209.7,241.1
		L209.7,241.1z M218.7,238.9c0.4-0.2,0.8-0.3,1.2-0.5l19.1,33c-3.3,1.7-6.8,3.1-10.4,4.3L218.7,238.9z M226.9,234.4
		c0.4-0.3,0.7-0.5,1-0.8l27,27c-2.8,2.5-5.8,4.8-8.9,6.9L226.9,234.4z M233.6,227.9c0.3-0.3,0.5-0.7,0.8-1l33,19.1
		c-2.1,3.2-4.4,6.1-6.9,8.9L233.6,227.9z M238.4,219.9c0.2-0.4,0.3-0.8,0.5-1.2l36.9,9.9c-1.2,3.6-2.6,7.1-4.3,10.4L238.4,219.9z
		 M241,211c0.1-0.4,0.1-0.9,0.2-1.3h38.2c-0.2,3.8-0.7,7.5-1.5,11.2L241,211z M241.1,201.7c0-0.4-0.1-0.9-0.2-1.3l36.9-9.9
		c0.8,3.6,1.3,7.4,1.5,11.2H241.1z M238.9,192.7c-0.2-0.4-0.3-0.8-0.5-1.2l33-19.1c1.7,3.3,3.2,6.8,4.3,10.4L238.9,192.7z
		 M234.4,184.5c-0.3-0.4-0.5-0.7-0.8-1l27-27c2.5,2.8,4.8,5.8,6.9,8.9L234.4,184.5z M260.5,145.2c-3.3-3-6.8-5.7-10.6-8.1l2.9-5.1
		c4.2,2.7,8.1,5.7,11.8,9.1L260.5,145.2z M243,133.1c-3.9-2-8.1-3.8-12.3-5.1l1.5-5.7c4.8,1.5,9.4,3.4,13.8,5.7L243,133.1z
		 M223,125.8c-4.3-0.9-8.7-1.5-13.3-1.8v-5.9c5,0.2,10,0.9,14.8,1.9L223,125.8z M201.7,124.1c-4.5,0.2-9,0.8-13.3,1.7l-1.5-5.7
		c4.8-1.1,9.7-1.7,14.8-1.9V124.1z M180.7,127.9c-4.3,1.4-8.4,3.1-12.3,5.1l-2.9-5.1c4.4-2.3,9-4.2,13.8-5.7L180.7,127.9z
		 M161.5,137.1c-3.8,2.4-7.3,5.1-10.6,8.1l-4.1-4.1c3.7-3.3,7.6-6.4,11.8-9.1L161.5,137.1z M145.2,150.8c-3,3.3-5.7,6.9-8.1,10.6
		l-5.1-2.9c2.7-4.2,5.7-8.1,9.1-11.8L145.2,150.8z M133.1,168.4c-2,3.9-3.8,8.1-5.1,12.3l-5.7-1.5c1.5-4.8,3.4-9.4,5.7-13.8
		L133.1,168.4z M125.8,188.4c-0.9,4.3-1.5,8.7-1.7,13.3h-5.9c0.2-5,0.9-10,1.9-14.8L125.8,188.4z M124.1,209.7
		c0.2,4.5,0.8,9,1.7,13.3l-5.7,1.5c-1.1-4.8-1.7-9.7-1.9-14.8H124.1z M127.9,230.7c1.4,4.3,3.1,8.4,5.1,12.3L128,246
		c-2.3-4.4-4.2-9-5.7-13.8L127.9,230.7z M137.1,249.9c2.4,3.8,5.1,7.3,8.1,10.6l-4.1,4.1c-3.3-3.7-6.4-7.6-9.1-11.8L137.1,249.9z
		 M150.9,266.2c3.3,3,6.9,5.7,10.6,8.1l-2.9,5.1c-4.2-2.7-8.1-5.7-11.8-9.1L150.9,266.2z M168.4,278.3c3.9,2,8.1,3.8,12.3,5.1
		l-1.5,5.7c-4.8-1.5-9.4-3.4-13.8-5.7L168.4,278.3z M188.4,285.5c4.3,0.9,8.7,1.5,13.3,1.7v5.9c-5-0.2-10-0.9-14.8-1.9L188.4,285.5z
		 M209.7,287.3c4.5-0.2,9-0.8,13.3-1.8l1.5,5.7c-4.8,1.1-9.7,1.7-14.8,1.9V287.3z M230.7,283.5c4.3-1.4,8.4-3.1,12.3-5.1l2.9,5.1
		c-4.4,2.3-9,4.2-13.8,5.7L230.7,283.5z M249.9,274.3c3.8-2.4,7.3-5.1,10.6-8.1l4.1,4.1c-3.7,3.3-7.6,6.4-11.8,9.1L249.9,274.3z
		 M266.2,260.5c3-3.3,5.7-6.8,8.1-10.6l5.1,2.9c-2.7,4.2-5.7,8.1-9.1,11.8L266.2,260.5z M278.3,243c2-3.9,3.8-8.1,5.1-12.3l5.7,1.5
		c-1.5,4.8-3.4,9.4-5.7,13.8L278.3,243z M285.5,222.9c0.9-4.3,1.5-8.7,1.7-13.2h5.9c-0.2,5-0.9,10-1.9,14.8L285.5,222.9z
		 M287.3,201.7c-0.2-4.5-0.8-8.9-1.7-13.3l5.7-1.5c1,4.8,1.7,9.7,1.9,14.8L287.3,201.7L287.3,201.7z M283.5,180.7
		c-1.4-4.3-3.1-8.4-5.1-12.3l5.1-2.9c2.3,4.4,4.2,9,5.7,13.8L283.5,180.7z M274.3,161.5c-2.4-3.8-5.1-7.3-8.1-10.6l4.1-4.1
		c3.3,3.7,6.4,7.6,9.1,11.8L274.3,161.5z M276,141.1l30.5-30.5c6.5,6.8,12.2,14.3,17.2,22.4l-37.4,21.6
		C283.3,149.7,279.8,145.2,276,141.1z M270.3,135.4c-4.2-3.8-8.7-7.3-13.5-10.4l21.6-37.4c8,5,15.5,10.8,22.4,17.2L270.3,135.4z
		 M250,121c-5-2.6-10.2-4.8-15.7-6.5l11.2-41.7c9.1,2.7,17.9,6.4,26.1,10.8L250,121z M226.5,112.4c-5.5-1.2-11.1-2-16.8-2.2V67.1
		c9.6,0.3,19,1.5,28,3.7L226.5,112.4z M201.7,110.2c-5.8,0.2-11.4,1-16.8,2.2l-11.2-41.7c9-2.1,18.4-3.4,28-3.7L201.7,110.2
		L201.7,110.2z M177.1,114.5c-5.5,1.7-10.7,3.9-15.7,6.5l-21.6-37.4c8.2-4.5,17-8.1,26.1-10.8L177.1,114.5z M154.5,125
		c-4.8,3.1-9.3,6.5-13.5,10.4l-30.5-30.5c6.8-6.5,14.3-12.2,22.4-17.2L154.5,125z M129.5,135.2l0,2.3h2.3l3.5,3.5
		c-3.8,4.2-7.3,8.7-10.4,13.5l-37.4-21.6c5-8,10.8-15.5,17.2-22.4L129.5,135.2z M121,161.4c-2.6,5-4.8,10.2-6.5,15.7l-41.7-11.2
		c2.7-9.1,6.4-17.9,10.8-26.1L121,161.4z M112.4,184.8c-1.2,5.5-2,11.1-2.2,16.8H67.1c0.3-9.6,1.5-19,3.7-28L112.4,184.8z
		 M110.2,209.7c0.2,5.8,1,11.4,2.2,16.9l-41.7,11.2c-2.1-9-3.4-18.4-3.7-28L110.2,209.7L110.2,209.7z M114.5,234.3
		c1.7,5.5,3.9,10.7,6.5,15.7l-37.4,21.6c-4.5-8.2-8.1-17-10.8-26.1L114.5,234.3z M125,256.9c3.1,4.8,6.5,9.3,10.4,13.5l-30.5,30.5
		c-6.5-6.8-12.2-14.3-17.2-22.4L125,256.9z M141.1,276c4.2,3.8,8.7,7.3,13.5,10.4l-21.6,37.4c-8-5-15.5-10.8-22.4-17.2L141.1,276z
		 M161.4,290.4c5,2.6,10.2,4.8,15.7,6.5L166,338.6c-9.1-2.7-17.9-6.4-26.1-10.8L161.4,290.4z M184.9,298.9c5.5,1.2,11.1,2,16.8,2.2
		v43.2c-9.6-0.3-19-1.5-28-3.7L184.9,298.9z M209.7,301.2c5.8-0.2,11.4-1,16.8-2.2l11.2,41.7c-9,2.1-18.4,3.4-28,3.7V301.2z
		 M234.3,296.9c5.5-1.7,10.7-3.9,15.7-6.5l21.6,37.4c-8.2,4.5-17,8.1-26.1,10.8L234.3,296.9z M256.9,286.3
		c4.8-3.1,9.3-6.5,13.5-10.4l30.5,30.5c-6.8,6.5-14.3,12.2-22.4,17.2L256.9,286.3z M276,270.3c3.8-4.2,7.3-8.7,10.3-13.5l37.4,21.6
		c-5,8-10.7,15.5-17.2,22.4L276,270.3z M290.4,250c2.6-5,4.8-10.2,6.5-15.7l41.7,11.2c-2.7,9.1-6.4,17.9-10.8,26.1L290.4,250z
		 M298.9,226.5c1.2-5.5,2-11.1,2.2-16.8h43.2c-0.3,9.6-1.5,19-3.7,28L298.9,226.5z M301.2,201.7c-0.2-5.8-1-11.4-2.2-16.8l41.7-11.2
		c2.1,9,3.4,18.4,3.7,28L301.2,201.7L301.2,201.7z M296.9,177.1c-1.7-5.5-3.9-10.7-6.5-15.7l37.4-21.6c4.5,8.2,8.1,17,10.8,26.1
		L296.9,177.1z M334.7,135.9l4.6-2.7c5,9.2,9.1,19,12.2,29.3l-5.1,1.4C343.4,154.1,339.5,144.7,334.7,135.9z M330.6,128.9
		c-5.3-8.6-11.5-16.7-18.5-24l3.8-3.8c7.3,7.7,13.8,16.1,19.3,25.1L330.6,128.9z M306.5,99.2c-7.3-7-15.4-13.2-24-18.5l2.7-4.6
		c9,5.6,17.5,12.1,25.1,19.3L306.5,99.2z M275.5,76.7c-8.8-4.8-18.2-8.7-28-11.6l1.4-5.1c10.3,3,20.1,7.1,29.3,12.2L275.5,76.7z
		 M239.8,63c-9.7-2.3-19.8-3.7-30.1-4v-5.3c10.8,0.3,21.3,1.7,31.5,4.1L239.8,63z M201.7,59.1c-10.3,0.3-20.4,1.6-30.1,4l-1.4-5.1
		c10.1-2.4,20.7-3.9,31.5-4.1V59.1z M163.9,65.1c-9.8,2.9-19.2,6.8-28,11.6l-2.7-4.6c9.2-5,19-9.1,29.3-12.2L163.9,65.1z
		 M128.9,80.7c-8.7,5.3-16.7,11.5-24.1,18.5l-3.8-3.8c7.7-7.3,16.1-13.8,25.2-19.3L128.9,80.7z M99.2,104.9
		c-7,7.3-13.2,15.4-18.5,24l-4.6-2.7c5.6-9,12.1-17.5,19.3-25.1L99.2,104.9z M76.7,135.8c-4.8,8.8-8.7,18.2-11.6,28l-5.1-1.4
		c3-10.3,7.1-20.1,12.2-29.3L76.7,135.8z M63,171.6c-2.3,9.7-3.7,19.8-4,30.1h-5.3c0.3-10.8,1.7-21.3,4.1-31.5L63,171.6z
		 M59.1,209.7c0.3,10.3,1.6,20.4,4,30.1l-5.1,1.4c-2.4-10.1-3.9-20.7-4.1-31.5H59.1z M65.1,247.5c2.9,9.8,6.8,19.2,11.6,28l-4.6,2.7
		c-5-9.2-9.1-19-12.2-29.3L65.1,247.5z M80.7,282.5c5.3,8.6,11.5,16.7,18.5,24l-3.8,3.8c-7.3-7.7-13.8-16.1-19.3-25.1L80.7,282.5z
		 M104.9,312.2c7.3,7,15.4,13.2,24.1,18.5l-2.7,4.6c-9.1-5.6-17.5-12.1-25.2-19.3L104.9,312.2z M135.9,334.7
		c8.8,4.8,18.2,8.7,28,11.6l-1.4,5.1c-10.3-3-20.1-7.1-29.3-12.2L135.9,334.7z M171.6,348.4c9.7,2.3,19.8,3.7,30.1,4v5.3
		c-10.8-0.3-21.3-1.7-31.5-4.1L171.6,348.4z M209.7,352.3c10.3-0.3,20.4-1.6,30.1-4l1.4,5.1c-10.1,2.4-20.7,3.9-31.5,4.1
		L209.7,352.3L209.7,352.3z M247.5,346.3c9.8-2.9,19.2-6.8,28-11.6l2.7,4.6c-9.2,5-19,9.1-29.3,12.2L247.5,346.3z M282.5,330.6
		c8.6-5.3,16.7-11.5,24-18.5l3.8,3.8c-7.7,7.3-16.1,13.8-25.2,19.3L282.5,330.6z M312.2,306.5c7-7.3,13.2-15.4,18.5-24l4.6,2.7
		c-5.6,9-12.1,17.5-19.3,25.1L312.2,306.5z M334.7,275.5c4.8-8.8,8.7-18.2,11.6-28l5.1,1.4c-3,10.3-7.1,20.1-12.2,29.3L334.7,275.5z
		 M348.4,239.8c2.3-9.7,3.7-19.8,4-30.1h5.3c-0.3,10.8-1.7,21.3-4.1,31.5L348.4,239.8z M352.3,201.7c-0.3-10.3-1.6-20.4-4-30.1
		l5.1-1.4c2.4,10.1,3.9,20.7,4.1,31.5L352.3,201.7L352.3,201.7z"/>
	<path class="st0" d="M205.7,0C92.3,0,0,92.3,0,205.7s92.3,205.7,205.7,205.7s205.7-92.3,205.7-205.7S319.1,0,205.7,0z M205.7,403.4
		C96.7,403.4,8,314.7,8,205.7C8,96.7,96.7,8,205.7,8c109,0,197.7,88.7,197.7,197.7C403.4,314.7,314.7,403.4,205.7,403.4z"/>
	<path class="st0" d="M205.7,188.6c-9.4,0-17.1,7.7-17.1,17.1c0,9.4,7.7,17.1,17.1,17.1s17.1-7.7,17.1-17.1S215.1,188.6,205.7,188.6
		z M205.7,214.8c-5,0-9.1-4.1-9.1-9.1s4.1-9.1,9.1-9.1s9.1,4.1,9.1,9.1C214.8,210.7,210.7,214.8,205.7,214.8z"/>
</g>
</svg>
