<?xml version="1.0" encoding="utf-8"?>
<!-- Generator: Adobe Illustrator 20.1.0, SVG Export Plug-In . SVG Version: 6.00 Build 0)  -->
<svg version="1.1" id="Layer_1" xmlns="http://www.w3.org/2000/svg" xmlns:xlink="http://www.w3.org/1999/xlink" x="0px" y="0px"
	 viewBox="0 0 512 512" style="enable-background:new 0 0 512 512;" xml:space="preserve">
<style type="text/css">
	.st0{fill:#FFFFFF;}
</style>
<g>
	<path class="st0" d="M472,123.2L356.8,8c-4.6-4.6-12.8-8-19.3-8H174.5c-6.6,0-14.7,3.4-19.3,8L40,123.2c-4.6,4.6-8,12.8-8,19.3
		v162.9c0,6.6,3.4,14.7,8,19.3l106.4,106.4L115,496H96c-4.4,0-8,3.6-8,8s3.6,8,8,8h24c0,0,0,0,0,0c0,0,0,0,0,0h40c4.4,0,8-3.6,8-8
		s-3.6-8-8-8h-27.2l25.8-53.3c4.6,3.2,10.8,5.3,15.9,5.3h162.9c5.2,0,11.3-2.1,15.9-5.3l25.8,53.3H352c-4.4,0-8,3.6-8,8s3.6,8,8,8
		h40c0,0,0,0,0,0c0,0,0,0,0,0h24c4.4,0,8-3.6,8-8s-3.6-8-8-8h-19l-31.4-64.8L472,324.8c4.6-4.6,8-12.8,8-19.3V142.5
		C480,136,476.6,127.9,472,123.2z M168,384c0-5.9,3.2-11.1,8-13.8l-7.8,16.1C168.1,385.5,168,384.8,168,384z M192,336
		c0-5.5,2.8-10.3,7-13.2l-6.9,14.2C192,336.7,192,336.4,192,336z M343.8,386.3l-7.8-16.1c4.8,2.8,8,7.9,8,13.8
		C344,384.8,343.9,385.5,343.8,386.3z M256,320c8.8,0,16,7.2,16,16s-7.2,16-16,16c-8.8,0-16-7.2-16-16S247.2,320,256,320z
		 M245.4,305.8c-1.4,0.5-2.8,1.1-4.2,1.8c1-1.3,1.9-2.7,2.7-4.1C244.4,304.3,244.9,305,245.4,305.8z M229.4,296.8l1.8-3.7
		C230.7,294.4,230.1,295.6,229.4,296.8z M216.8,322.7c4.3,2.9,7.2,7.8,7.2,13.3c0,8.8-7.2,16-16,16c-1.8,0-3.4-0.3-5-0.8
		L216.8,322.7z M193.4,371c4,2.9,6.6,7.6,6.6,13c0,8.8-7.2,16-16,16c-1.5,0-3-0.2-4.4-0.6L193.4,371z M232,368c8.8,0,16,7.2,16,16
		s-7.2,16-16,16s-16-7.2-16-16S223.2,368,232,368z M280,368c8.8,0,16,7.2,16,16s-7.2,16-16,16s-16-7.2-16-16S271.2,368,280,368z
		 M318.6,371l13.7,28.3c-1.4,0.4-2.9,0.6-4.4,0.6c-8.8,0-16-7.2-16-16C312,378.7,314.6,374,318.6,371z M319.9,337.1l-6.9-14.2
		c4.2,2.9,7,7.7,7,13.2C320,336.4,320,336.7,319.9,337.1z M309,351.2c-1.6,0.5-3.3,0.8-5,0.8c-8.8,0-16-7.2-16-16
		c0-5.6,2.9-10.5,7.2-13.3L309,351.2z M272,304c-8.8,0-16-7.2-16-16c0-8.4,6.5-15.2,14.7-15.9l13,26.8C280.8,302,276.6,304,272,304z
		 M256,232c-4.4,0-8-3.6-8-8s3.6-8,8-8c4.4,0,8,3.6,8,8S260.4,232,256,232z M253.1,247.8c1,0.1,1.9,0.2,2.9,0.2c1,0,1.9-0.1,2.9-0.2
		l4.5,9.4c-8.3,2.3-15.3,7.9-19.4,15.4c-0.5-0.9-1-1.8-1.6-2.6L253.1,247.8z M208.9,302.3c-5.3-2.6-8.9-8-8.9-14.3
		c0-8.8,7.2-16,16-16c2.4,0,4.8,0.6,6.8,1.6L208.9,302.3z M345.5,428.7c-1.6,1.6-5.7,3.3-8,3.3H174.5c-2.3,0-6.4-1.7-8-3.3l-0.8-0.8
		l6.8-14c3.5,1.4,7.4,2.1,11.4,2.1c9.6,0,18.1-4.2,24-10.9c5.9,6.7,14.4,10.9,24,10.9s18.1-4.2,24-10.9c5.9,6.7,14.4,10.9,24,10.9
		s18.1-4.2,24-10.9c5.9,6.7,14.4,10.9,24,10.9c4,0,7.9-0.8,11.4-2.1l6.8,14L345.5,428.7z M464,305.5c0,2.3-1.7,6.4-3.3,8L358.2,416
		l-5.6-11.5c4.6-5.5,7.4-12.7,7.4-20.4c0-16.4-12.5-30-28.4-31.8c2.8-4.8,4.4-10.3,4.4-16.2c0-17.6-14.4-32-32-32c0,0-0.1,0-0.1,0
		l-2.1-4.4c1.4-3.6,2.2-7.5,2.2-11.6c0-14.4-9.6-26.6-22.7-30.6l-8.1-16.7c4.2-4.3,6.8-10.2,6.8-16.7c0-13.2-10.8-24-24-24
		c-13.2,0-24,10.8-24,24c0,6.5,2.6,12.4,6.8,16.7l-8.9,18.5c-4.2-2-8.9-3.1-13.8-3.1c-17.6,0-32,14.4-32,32c0,7.8,2.8,15,7.5,20.6
		c-9.3,5.6-15.5,15.8-15.5,27.4c0,5.9,1.6,11.4,4.4,16.2c-4,0.4-7.8,1.6-11.2,3.4c4.2-5.4,6.7-12.2,6.7-19.6c0-17.6-14.4-32-32-32
		s-32,14.4-32,32s14.4,32,32,32c5.3,0,10.3-1.3,14.7-3.6c-4.2,5.4-6.7,12.2-6.7,19.6c0,7.8,2.8,14.9,7.4,20.4l-5.6,11.5L51.3,313.5
		c-1.6-1.6-3.3-5.7-3.3-8V142.5c0-2.3,1.7-6.4,3.3-8L166.5,19.3c1.6-1.6,5.7-3.3,8-3.3h162.9c2.3,0,6.4,1.7,8,3.3l115.2,115.2
		c1.6,1.6,3.3,5.7,3.3,8L464,305.5L464,305.5z M160,336c0,8.8-7.2,16-16,16s-16-7.2-16-16s7.2-16,16-16S160,327.2,160,336z"/>
	<path class="st0" d="M152,240c-17.6,0-32,14.4-32,32s14.4,32,32,32s32-14.4,32-32S169.6,240,152,240z M152,288c-8.8,0-16-7.2-16-16
		s7.2-16,16-16s16,7.2,16,16S160.8,288,152,288z"/>
	<path class="st0" d="M96,192c-17.6,0-32,14.4-32,32s14.4,32,32,32s32-14.4,32-32S113.6,192,96,192z M96,240c-8.8,0-16-7.2-16-16
		s7.2-16,16-16s16,7.2,16,16S104.8,240,96,240z"/>
	<path class="st0" d="M240,56c-17.6,0-32,14.4-32,32s14.4,32,32,32s32-14.4,32-32S257.6,56,240,56z M240,104c-8.8,0-16-7.2-16-16
		s7.2-16,16-16s16,7.2,16,16S248.8,104,240,104z"/>
	<path class="st0" d="M376,304c-17.6,0-32,14.4-32,32s14.4,32,32,32s32-14.4,32-32S393.6,304,376,304z M376,352c-8.8,0-16-7.2-16-16
		s7.2-16,16-16s16,7.2,16,16S384.8,352,376,352z"/>
	<path class="st0" d="M136,192c17.6,0,32-14.4,32-32s-14.4-32-32-32s-32,14.4-32,32S118.4,192,136,192z M136,144c8.8,0,16,7.2,16,16
		s-7.2,16-16,16s-16-7.2-16-16S127.2,144,136,144z"/>
	<path class="st0" d="M320,32h-16c-4.4,0-8,3.6-8,8s3.6,8,8,8h16c4.4,0,8-3.6,8-8S324.4,32,320,32z"/>
	<path class="st0" d="M351.8,48.2c-3.1-3.1-8.2-3.1-11.3,0c-3.1,3.1-3.1,8.2,0,11.3l61.9,61.9c1.6,1.6,3.6,2.3,5.7,2.3
		c2,0,4.1-0.8,5.7-2.3c3.1-3.1,3.1-8.2,0-11.3L351.8,48.2z"/>
</g>
</svg>
