<?xml version="1.0" encoding="utf-8"?>
<!-- Generator: Adobe Illustrator 20.1.0, SVG Export Plug-In . SVG Version: 6.00 Build 0)  -->
<svg version="1.1" id="Capa_1" xmlns="http://www.w3.org/2000/svg" xmlns:xlink="http://www.w3.org/1999/xlink" x="0px" y="0px"
	 viewBox="0 0 446.6 446.6" style="enable-background:new 0 0 446.6 446.6;" xml:space="preserve">
<style type="text/css">
	.st0{fill:#FFFFFF;}
</style>
<g>
	<path class="st0" d="M388.7,70.7v-2.1c0-4.8-1.9-9.3-5.2-12.7c-3.4-3.4-7.9-5.3-12.7-5.3c-9.9,0-17.9,8-17.9,17.9v2.1h-37v-2.1
		c0-4.8-1.9-9.3-5.2-12.7c-3.4-3.4-7.9-5.3-12.7-5.3c-9.9,0-17.9,8-17.9,17.9v2.1h-37v-2.1c0-4.8-1.9-9.3-5.2-12.7
		c-3.4-3.4-7.9-5.2-12.7-5.2c-9.9,0-17.9,8-17.9,17.9v2.1h-37v-2.1c0-4.8-1.9-9.3-5.2-12.7c-3.4-3.4-7.9-5.2-12.7-5.2
		c-9.9,0-17.9,8-17.9,17.9v2.1h-37v-2.1c0-4.8-1.9-9.3-5.2-12.7c-3.4-3.4-7.9-5.2-12.7-5.2c-9.9,0-17.9,8-17.9,17.9v2.1h-36v6.7
		L0,379.9h25.6v16h420.9V70.7H388.7z M366.9,68.6c0-2.2,1.8-3.9,3.9-3.9c1,0,2,0.4,2.8,1.2c0.7,0.7,1.1,1.7,1.1,2.7v2.1h-7.8V68.6z
		 M294,68.6c0-2.2,1.8-3.9,3.9-3.9c1.3,0,2.2,0.6,2.8,1.2c0.7,0.7,1.1,1.7,1.1,2.7v2.1H294V68.6z M221.2,68.6c0-2.2,1.8-3.9,3.9-3.9
		c1.3,0,2.2,0.6,2.8,1.2c0.7,0.7,1.1,1.7,1.1,2.7v2.1h-7.8V68.6z M148.4,68.6c0-2.2,1.8-3.9,3.9-3.9c1.3,0,2.2,0.6,2.8,1.2
		c0.7,0.7,1.1,1.7,1.1,2.7v2.1h-7.8V68.6z M75.6,68.6c0-2.2,1.8-3.9,3.9-3.9c1.3,0,2.2,0.6,2.8,1.2c0.7,0.7,1.1,1.7,1.1,2.7v2.1
		h-7.8V68.6z M15.2,365.9l10.4-122.6v122.6H15.2z M432.6,381.9H39.6V84.7h43.8v9.1c-7.5,2.8-12.9,10.1-12.9,18.6
		c0,11,8.9,19.9,19.9,19.9s19.9-8.9,19.9-19.9c0-8.5-5.4-15.8-12.9-18.6v-9.1h58.8v9.1c-7.5,2.8-12.9,10.1-12.9,18.6
		c0,11,8.9,19.9,19.9,19.9c11,0,19.9-8.9,19.9-19.9c0-8.5-5.4-15.8-12.9-18.6v-9.1H229v9.1c-7.5,2.8-12.9,10.1-12.9,18.6
		c0,11,8.9,19.9,19.9,19.9s19.9-8.9,19.9-19.9c0-8.5-5.4-15.8-12.9-18.6v-9.1h58.8v9.1c-7.5,2.8-12.9,10.1-12.9,18.6
		c0,11,8.9,19.9,19.9,19.9s19.9-8.9,19.9-19.9c0-8.5-5.4-15.8-12.9-18.6v-9.1h58.8v9.1c-7.5,2.8-12.9,10.1-12.9,18.6
		c0,11,8.9,19.9,19.9,19.9s19.9-8.9,19.9-19.9c0-8.5-5.4-15.8-12.9-18.6v-9.1h43.9L432.6,381.9L432.6,381.9z M96.3,112.5
		c0,3.3-2.7,5.9-5.9,5.9s-5.9-2.7-5.9-5.9s2.7-5.9,5.9-5.9S96.3,109.2,96.3,112.5z M169.1,112.5c0,3.3-2.7,5.9-5.9,5.9
		s-5.9-2.7-5.9-5.9s2.7-5.9,5.9-5.9S169.1,109.2,169.1,112.5z M242,112.5c0,3.3-2.7,5.9-5.9,5.9s-5.9-2.7-5.9-5.9s2.7-5.9,5.9-5.9
		S242,109.2,242,112.5z M314.8,112.5c0,3.3-2.7,5.9-5.9,5.9s-5.9-2.7-5.9-5.9s2.7-5.9,5.9-5.9S314.8,109.2,314.8,112.5z
		 M387.6,112.5c0,3.3-2.7,5.9-5.9,5.9s-5.9-2.7-5.9-5.9s2.7-5.9,5.9-5.9S387.6,109.2,387.6,112.5z"/>
	<path class="st0" d="M66.2,354.9h339.7V160.7H66.2V354.9z M80.2,174.7h311.7v166.2H80.2V174.7z"/>
	<rect x="93.1" y="191.8" class="st0" width="22" height="22"/>
	<rect x="134.3" y="191.8" class="st0" width="22" height="22"/>
	<rect x="175.6" y="191.8" class="st0" width="22" height="22"/>
	<rect x="216.8" y="191.8" class="st0" width="22" height="22"/>
	<rect x="258.1" y="191.8" class="st0" width="22" height="22"/>
	<rect x="357.1" y="191.8" class="st0" width="22" height="22"/>
	<rect x="318.1" y="191.8" class="st0" width="22" height="22"/>
	<rect x="93.1" y="228.5" class="st0" width="22" height="22"/>
	<rect x="134.3" y="228.5" class="st0" width="22" height="22"/>
	<rect x="175.6" y="228.5" class="st0" width="22" height="22"/>
	<rect x="216.8" y="228.5" class="st0" width="22" height="22"/>
	<rect x="258.1" y="228.5" class="st0" width="22" height="22"/>
	<rect x="357.1" y="228.5" class="st0" width="22" height="22"/>
	<rect x="318.1" y="228.5" class="st0" width="22" height="22"/>
	<rect x="93.1" y="265.1" class="st0" width="22" height="22"/>
	<rect x="134.3" y="265.1" class="st0" width="22" height="22"/>
	<rect x="175.6" y="265.1" class="st0" width="22" height="22"/>
	<rect x="216.8" y="265.1" class="st0" width="22" height="22"/>
	<rect x="258.1" y="265.1" class="st0" width="22" height="22"/>
	<rect x="357.1" y="265.1" class="st0" width="22" height="22"/>
	<rect x="318.1" y="265.1" class="st0" width="22" height="22"/>
	<rect x="93.1" y="301.8" class="st0" width="22" height="22"/>
	<rect x="134.3" y="301.8" class="st0" width="22" height="22"/>
	<rect x="175.6" y="301.8" class="st0" width="22" height="22"/>
	<rect x="216.8" y="301.8" class="st0" width="22" height="22"/>
	<rect x="258.1" y="301.8" class="st0" width="22" height="22"/>
	<rect x="357.1" y="301.8" class="st0" width="22" height="22"/>
	<rect x="318.1" y="301.8" class="st0" width="22" height="22"/>
</g>
</svg>
