<?xml version="1.0" encoding="utf-8"?>
<!-- Generator: Adobe Illustrator 20.1.0, SVG Export Plug-In . SVG Version: 6.00 Build 0)  -->
<svg version="1.1" id="Layer_1" xmlns="http://www.w3.org/2000/svg" xmlns:xlink="http://www.w3.org/1999/xlink" x="0px" y="0px"
	 viewBox="0 0 512 512" style="enable-background:new 0 0 512 512;" xml:space="preserve">
<style type="text/css">
	.st0{fill:#FFFFFF;}
</style>
<g>
	<g>
		<g>
			<path class="st0" d="M221.9,51.2h25.6v42.7c0,4.7,3.8,8.5,8.5,8.5s8.5-3.8,8.5-8.5V51.2h25.6c4.7,0,8.5-3.8,8.5-8.5
				s-3.8-8.5-8.5-8.5h-25.6V8.5c0-4.7-3.8-8.5-8.5-8.5s-8.5,3.8-8.5,8.5v25.6h-25.6c-4.7,0-8.5,3.8-8.5,8.5
				C213.3,47.4,217.2,51.2,221.9,51.2z"/>
			<path class="st0" d="M131,460.8H42.7c-4.2,0-8.5-2.6-8.5-8.5c0-32.1,7.9-47.8,16.2-64.5c8.8-17.7,18-35.9,18-72.1
				c0-4.7-3.8-8.5-8.5-8.5c-4.7,0-8.5-3.8-8.5-8.5s3.8-8.5,8.5-8.5H128c4.7,0,8.5,3.8,8.5,8.5s-3.8,8.5-8.5,8.5H93.9
				c-4.7,0-8.5,3.8-8.5,8.5s3.8,8.5,8.5,8.5H128c14.1,0,25.6-11.5,25.6-25.6c0-11.8-8.1-21.7-19.1-24.6
				c11.7-10.9,19.1-26.4,19.1-43.6c0-32.9-26.8-59.7-59.7-59.7c-32.9,0-59.7,26.8-59.7,59.7c0,8.6,1.8,17,5.5,24.9
				c2,4.3,7,6.2,11.3,4.2c4.3-2,6.2-7,4.2-11.3c-2.6-5.6-3.9-11.6-3.9-17.8c0-23.5,19.1-42.7,42.7-42.7c23.5,0,42.7,19.1,42.7,42.7
				c0,23.5-19.1,42.7-42.7,42.7H59.7c-14.1,0-25.6,11.5-25.6,25.6c0,11.1,7.1,20.5,16.9,24.1c-1.1,27.5-8.3,42.1-16,57.4
				c-8.8,17.7-18,35.9-18,72.1c0,3.4,0.7,6.6,1.8,9.6C8,464.8,0,474.6,0,486.4v17.1c0,4.7,3.8,8.5,8.5,8.5H128
				c4.7,0,8.5-3.8,8.5-8.5s-3.8-8.5-8.5-8.5H17.1v-8.5c0-4.7,3.8-8.5,8.5-8.5h17.1H131c4.7,0,8.5-3.8,8.5-8.5S135.7,460.8,131,460.8
				z"/>
			<path class="st0" d="M199.1,202.1c0.9,4.6,5.3,7.7,10,6.8c4.6-0.9,7.7-5.4,6.8-10l-9.5-49.3c8.4-4.5,27.3-12.9,50.2-12.9
				c22.7,0,41.6,8.3,50.1,12.8l-16.4,79.1c-0.5,2.5,0.1,5.1,1.7,7.1c1.6,2,4,3.1,6.6,3.1c4.7,0,8.5,3.8,8.5,8.5
				c0,4.7-3.8,8.5-8.5,8.5h-51.2c-4.7,0-8.5,3.8-8.5,8.5s3.8,8.5,8.5,8.5h51.2c14.1,0,25.6-11.5,25.6-25.6
				c0-10.5-6.4-19.6-15.5-23.5l15.9-76.9c0.7-3.4-0.7-6.9-3.6-8.8c-1.1-0.8-28.2-18.5-64.5-18.5c-36.3,0-63.3,17.7-64.5,18.5
				c-2.9,1.9-4.3,5.3-3.6,8.7L199.1,202.1z"/>
			<path class="st0" d="M339.5,461.8c1.2-2.9,1.8-6.1,1.8-9.5c0-32.1-7.3-53.5-14.9-76.2c-7.5-22.2-15.3-45.1-18.1-82
				c-0.4-4.7-4.4-8.2-9.2-7.9c-4.7,0.4-8.2,4.5-7.9,9.2c3,39,11.5,64.1,19,86.2c7.5,22.2,14,41.4,14,70.7c0,5-3.5,8.5-8.5,8.5h-85.3
				c-4.7,0-8.5,3.8-8.5,8.5s3.8,8.5,8.5,8.5h102.4c4.7,0,8.5,3.8,8.5,8.5v8.5H170.7v-8.5c0-4.7,3.8-8.5,8.5-8.5h17.1
				c4.7,0,8.5-3.8,8.5-8.5s-3.8-8.5-8.5-8.5c-4.2,0-8.5-2.6-8.5-8.5c0-29.3,6.5-48.5,14-70.7c9.4-27.8,20.1-59.3,20.1-117.1
				c0-4.7-3.8-8.5-8.5-8.5c-4.7,0-8.5-3.8-8.5-8.5c0-4.7,3.8-8.5,8.5-8.5h51.2c4.7,0,8.5-3.8,8.5-8.5s-3.8-8.5-8.5-8.5h-51.2
				c-14.1,0-25.6,11.5-25.6,25.6c0,11.1,7.1,20.6,17,24.1c-0.8,50.5-10.5,79.1-19.1,104.5c-7.7,22.7-14.9,44.1-14.9,76.2
				c0,3.4,0.6,6.6,1.7,9.5c-10.8,3-18.7,12.9-18.7,24.7v17.1c0,4.7,3.8,8.5,8.5,8.5h187.7c4.7,0,8.5-3.8,8.5-8.5v-17.1
				C358.4,474.6,350.4,464.8,339.5,461.8z"/>
			<path class="st0" d="M493.1,461.8c1.2-2.9,1.8-6.1,1.8-9.5c0-36.1-9.1-54.4-18-72.1c-5.5-11.1-10.7-21.5-13.7-36.5
				c-0.9-4.6-5.4-7.7-10-6.7c-4.6,0.9-7.6,5.4-6.7,10c3.4,17.3,9.4,29.2,15.2,40.8c8.3,16.6,16.2,32.3,16.2,64.5
				c0,5-3.5,8.5-8.5,8.5H381c-4.7,0-8.5,3.8-8.5,8.5s3.8,8.5,8.5,8.5h88.3h17.1c4.7,0,8.5,3.8,8.5,8.5v8.5H384
				c-4.7,0-8.5,3.8-8.5,8.5s3.8,8.5,8.5,8.5h119.5c4.7,0,8.5-3.8,8.5-8.5v-17.1C512,474.6,504,464.8,493.1,461.8z"/>
			<path class="st0" d="M159.8,395.1c-2.3-5.2-4.7-10.1-7.1-15c-5.5-11-10.7-21.5-13.7-36.5c-0.9-4.6-5.4-7.7-10-6.7
				c-4.6,0.9-7.6,5.4-6.7,10c3.4,17.3,9.4,29.3,15.2,40.8c2.3,4.6,4.6,9.1,6.7,14c1.4,3.2,4.5,5.2,7.8,5.2c1.1,0,2.3-0.2,3.4-0.7
				C159.6,404.5,161.7,399.5,159.8,395.1z"/>
			<path class="st0" d="M392.5,315.7c0-4.7-3.8-8.5-8.5-8.5c-4.7,0-8.5-3.8-8.5-8.5s3.8-8.5,8.5-8.5h68.3c4.7,0,8.5,3.8,8.5,8.5
				s-3.8,8.5-8.5,8.5h-34.1c-4.7,0-8.5,3.8-8.5,8.5s3.8,8.5,8.5,8.5h34.1c14.1,0,25.6-11.5,25.6-25.6c0-11.8-8.1-21.7-19.1-24.6
				c11.7-10.9,19.1-26.4,19.1-43.6c0-32.9-26.8-59.7-59.7-59.7s-59.7,26.8-59.7,59.7c0,8.6,1.8,17,5.5,24.9c2,4.3,7,6.2,11.3,4.2
				c4.3-2,6.2-7,4.2-11.3c-2.6-5.6-3.9-11.6-3.9-17.8c0-23.5,19.1-42.7,42.7-42.7c23.5,0,42.7,19.1,42.7,42.7
				c0,23.5-19.1,42.7-42.7,42.7H384c-14.1,0-25.6,11.5-25.6,25.6c0,11.1,7.1,20.5,16.9,24.1c-1.1,27.5-8.3,42.1-16,57.5
				c-2.4,4.9-4.8,9.7-7.1,14.9c-1.9,4.3,0.1,9.3,4.5,11.2c1.1,0.5,2.2,0.7,3.4,0.7c3.3,0,6.5-1.9,7.8-5.2c2.1-4.9,4.4-9.5,6.7-14
				C383.4,370.2,392.5,351.9,392.5,315.7z"/>
		</g>
	</g>
</g>
</svg>
