<?xml version="1.0" encoding="utf-8"?>
<!-- Generator: Adobe Illustrator 20.1.0, SVG Export Plug-In . SVG Version: 6.00 Build 0)  -->
<svg version="1.1" id="Layer_1" xmlns="http://www.w3.org/2000/svg" xmlns:xlink="http://www.w3.org/1999/xlink" x="0px" y="0px"
	 viewBox="0 0 512 512" style="enable-background:new 0 0 512 512;" xml:space="preserve">
<style type="text/css">
	.st0{fill:#FFFFFF;}
</style>
<g>
	<g>
		<g>
			<path class="st0" d="M150.6,134.4l-16.2,16.2c-3.2,3.2-3.2,8.3,0,11.4c1.6,1.6,3.6,2.4,5.7,2.4s4.1-0.8,5.7-2.4l16.2-16.2
				c3.2-3.2,3.2-8.3,0-11.4C158.9,131.3,153.7,131.3,150.6,134.4z"/>
			<path class="st0" d="M97,121.3c2.1,0,4.1-0.8,5.7-2.4l16.2-16.2c3.2-3.2,3.2-8.3,0-11.4c-3.2-3.2-8.3-3.2-11.4,0l-16.2,16.2
				c-3.2,3.2-3.2,8.3,0,11.4C92.9,120.5,94.9,121.3,97,121.3z"/>
			<path class="st0" d="M97,164.4c2.1,0,4.1-0.8,5.7-2.4l59.3-59.3c3.2-3.2,3.2-8.3,0-11.4c-3.2-3.2-8.3-3.2-11.4,0l-59.3,59.3
				c-3.2,3.2-3.2,8.3,0,11.4C92.9,163.6,94.9,164.4,97,164.4z"/>
			<path class="st0" d="M97,423.1c2.1,0,4.1-0.8,5.7-2.4l59.3-59.3c3.2-3.2,3.2-8.3,0-11.4c-3.2-3.2-8.3-3.2-11.4,0l-59.3,59.3
				c-3.2,3.2-3.2,8.3,0,11.4C92.9,422.3,94.9,423.1,97,423.1z"/>
			<path class="st0" d="M150.6,393.1l-16.2,16.2c-3.2,3.2-3.2,8.3,0,11.4c1.6,1.6,3.6,2.4,5.7,2.4s4.1-0.8,5.7-2.4l16.2-16.2
				c3.2-3.2,3.2-8.3,0-11.4C158.9,389.9,153.7,389.9,150.6,393.1z"/>
			<path class="st0" d="M482.4,0H29.6C13.3,0,0,13.3,0,29.6v452.7C0,498.7,13.3,512,29.6,512h452.7c16.3,0,29.6-13.3,29.6-29.6V29.6
				C512,13.3,498.7,0,482.4,0z M495.8,482.4c0,7.4-6,13.5-13.5,13.5H29.6c-7.4,0-13.5-6-13.5-13.5V29.6c0-7.4,6-13.5,13.5-13.5
				h452.7c7.4,0,13.5,6,13.5,13.5V482.4z"/>
			<path class="st0" d="M97,380c2.1,0,4.1-0.8,5.7-2.4l16.2-16.2c3.2-3.2,3.2-8.3,0-11.4c-3.2-3.2-8.3-3.2-11.4,0l-16.2,16.2
				c-3.2,3.2-3.2,8.3,0,11.4C92.9,379.2,94.9,380,97,380z"/>
			<path class="st0" d="M439.2,53.9H72.8c-10.4,0-18.9,8.5-18.9,18.9v366.5c0,10.4,8.5,18.9,18.9,18.9h366.5
				c10.4,0,18.9-8.5,18.9-18.9V72.8C458.1,62.4,449.6,53.9,439.2,53.9z M183.2,441.9H72.8c-1.5,0-2.7-1.2-2.7-2.7V328.8h113.2V441.9
				z M183.2,312.6H70.1V199.4h113.2V312.6z M183.2,183.2H70.1V72.8c0-1.5,1.2-2.7,2.7-2.7h110.5V183.2z M312.6,441.9H199.4V328.8
				h113.2L312.6,441.9L312.6,441.9z M312.6,312.6H199.4V199.4h113.2L312.6,312.6L312.6,312.6z M312.6,183.2H199.4V70.1h113.2
				L312.6,183.2L312.6,183.2z M441.9,439.2c0,1.5-1.2,2.7-2.7,2.7H328.8V328.8h113.2V439.2z M441.9,312.6H328.8V199.4h113.2V312.6z
				 M441.9,183.2H328.8V70.1h110.5c1.5,0,2.7,1.2,2.7,2.7V183.2z"/>
			<path class="st0" d="M409.3,393.1l-16.2,16.2c-3.2,3.2-3.2,8.3,0,11.4c1.6,1.6,3.6,2.4,5.7,2.4s4.1-0.8,5.7-2.4l16.2-16.2
				c3.2-3.2,3.2-8.3,0-11.4C417.5,389.9,412.4,389.9,409.3,393.1z"/>
			<path class="st0" d="M355.7,121.3c2.1,0,4.1-0.8,5.7-2.4l16.2-16.2c3.2-3.2,3.2-8.3,0-11.4c-3.2-3.2-8.3-3.2-11.4,0L350,107.5
				c-3.2,3.2-3.2,8.3,0,11.4C351.6,120.5,353.6,121.3,355.7,121.3z"/>
			<path class="st0" d="M355.7,380c2.1,0,4.1-0.8,5.7-2.4l16.2-16.2c3.2-3.2,3.2-8.3,0-11.4c-3.2-3.2-8.3-3.2-11.4,0L350,366.2
				c-3.2,3.2-3.2,8.3,0,11.4C351.6,379.2,353.6,380,355.7,380z"/>
			<path class="st0" d="M409.3,134.4l-16.2,16.2c-3.2,3.2-3.2,8.3,0,11.4c1.6,1.6,3.6,2.4,5.7,2.4s4.1-0.8,5.7-2.4l16.2-16.2
				c3.2-3.2,3.2-8.3,0-11.4C417.5,131.3,412.4,131.3,409.3,134.4z"/>
			<path class="st0" d="M355.7,423.1c2.1,0,4.1-0.8,5.7-2.4l59.3-59.3c3.2-3.2,3.2-8.3,0-11.4c-3.2-3.2-8.3-3.2-11.4,0L350,409.3
				c-3.2,3.2-3.2,8.3,0,11.4C351.6,422.3,353.6,423.1,355.7,423.1z"/>
			<path class="st0" d="M279.9,263.8l-16.2,16.2c-3.2,3.2-3.2,8.3,0,11.4c1.6,1.6,3.6,2.4,5.7,2.4s4.1-0.8,5.7-2.4l16.2-16.2
				c3.2-3.2,3.2-8.3,0-11.4C288.2,260.6,283.1,260.6,279.9,263.8z"/>
			<path class="st0" d="M226.4,250.6c2.1,0,4.1-0.8,5.7-2.4l16.2-16.2c3.2-3.2,3.2-8.3,0-11.4c-3.2-3.2-8.3-3.2-11.4,0l-16.2,16.2
				c-3.2,3.2-3.2,8.3,0,11.4C222.2,249.8,224.3,250.6,226.4,250.6z"/>
			<path class="st0" d="M226.4,293.7c2.1,0,4.1-0.8,5.7-2.4l59.3-59.3c3.2-3.2,3.2-8.3,0-11.4c-3.2-3.2-8.3-3.2-11.4,0l-59.3,59.3
				c-3.2,3.2-3.2,8.3,0,11.4C222.2,292.9,224.3,293.7,226.4,293.7z"/>
			<path class="st0" d="M409.3,91.3L350,150.6c-3.2,3.2-3.2,8.3,0,11.4c1.6,1.6,3.6,2.4,5.7,2.4s4.1-0.8,5.7-2.4l59.3-59.3
				c3.2-3.2,3.2-8.3,0-11.4C417.5,88.1,412.4,88.1,409.3,91.3z"/>
		</g>
	</g>
</g>
</svg>
