<?xml version="1.0" encoding="utf-8"?>
<!-- Generator: Adobe Illustrator 20.1.0, SVG Export Plug-In . SVG Version: 6.00 Build 0)  -->
<svg version="1.1" id="Layer_1" xmlns="http://www.w3.org/2000/svg" xmlns:xlink="http://www.w3.org/1999/xlink" x="0px" y="0px"
	 viewBox="0 0 512 512" style="enable-background:new 0 0 512 512;" xml:space="preserve">
<style type="text/css">
	.st0{fill:#FFFFFF;}
</style>
<g>
	<g>
		<path class="st0" d="M232.4,171.9c-5.6-5.6-13.1-8.7-21-8.7s-15.4,3.1-21,8.7c-5.6,5.6-8.7,13.1-8.7,21s3.1,15.4,8.7,21
			c5.6,5.6,13.1,8.7,21,8.7s15.4-3.1,21-8.7C244,202.3,244,183.5,232.4,171.9z M221.2,202.6c-2.6,2.6-6.1,4-9.8,4s-7.1-1.4-9.8-4
			s-4-6.1-4-9.8s1.4-7.1,4-9.8h0c2.6-2.6,6.1-4,9.8-4s7.2,1.4,9.8,4C226.6,188.5,226.6,197.3,221.2,202.6z"/>
	</g>
</g>
<g>
	<g>
		<path class="st0" d="M342.7,61.6c-11.6-11.6-30.4-11.6-41.9,0h0c-11.6,11.6-11.6,30.4,0,42c5.8,5.8,13.4,8.7,21,8.7
			s15.2-2.9,21-8.7c5.6-5.6,8.7-13.1,8.7-21C351.4,74.6,348.3,67.2,342.7,61.6z M331.5,92.3c-5.4,5.4-14.1,5.4-19.5,0
			c-5.4-5.4-5.4-14.1,0-19.5c5.4-5.4,14.1-5.4,19.5,0c2.6,2.6,4,6.1,4,9.8S334.1,89.7,331.5,92.3z"/>
	</g>
</g>
<g>
	<g>
		<path class="st0" d="M342.7,282.3c-11.6-11.6-30.4-11.6-41.9,0h0c-11.6,11.6-11.6,30.4,0,42c5.8,5.8,13.4,8.7,21,8.7
			s15.2-2.9,21-8.7c5.6-5.6,8.7-13.1,8.7-21C351.4,295.3,348.3,287.9,342.7,282.3z M331.5,313c-5.4,5.4-14.1,5.4-19.5,0
			c-5.4-5.4-5.4-14.1,0-19.5c5.4-5.4,14.1-5.4,19.5,0c2.6,2.6,4,6.1,4,9.8S334.1,310.4,331.5,313z"/>
	</g>
</g>
<g>
	<g>
		<path class="st0" d="M453.1,171.9c-5.6-5.6-13.1-8.7-21-8.7s-15.4,3.1-21,8.7c-5.6,5.6-8.7,13.1-8.7,21s3.1,15.4,8.7,21
			c5.6,5.6,13.1,8.7,21,8.7s15.4-3.1,21-8.7C464.7,202.3,464.7,183.5,453.1,171.9z M441.9,202.6c-2.6,2.6-6.1,4-9.8,4
			s-7.1-1.4-9.8-4c-2.6-2.6-4-6.1-4-9.8s1.4-7.1,4-9.8h0c2.6-2.6,6.1-4,9.8-4s7.2,1.4,9.8,4C447.2,188.5,447.2,197.3,441.9,202.6z"
			/>
	</g>
</g>
<g>
	<g>
		<path class="st0" d="M144.1,335.6c-16.4,0-29.7,13.3-29.7,29.7s13.3,29.7,29.7,29.7s29.7-13.3,29.7-29.7
			C173.7,348.9,160.4,335.6,144.1,335.6z M144.1,379.1c-7.6,0-13.8-6.2-13.8-13.8c0-7.6,6.2-13.8,13.8-13.8
			c7.6,0,13.8,6.2,13.8,13.8S151.7,379.1,144.1,379.1z"/>
	</g>
</g>
<g>
	<g>
		<path class="st0" d="M66,257.6c-16.4,0-29.7,13.3-29.7,29.7c0,16.4,13.3,29.7,29.7,29.7c16.4,0,29.7-13.3,29.7-29.7
			C95.7,270.9,82.4,257.6,66,257.6z M66,301.1c-7.6,0-13.8-6.2-13.8-13.8s6.2-13.8,13.8-13.8c7.6,0,13.8,6.2,13.8,13.8
			C79.8,294.9,73.6,301.1,66,301.1z"/>
	</g>
</g>
<g>
	<g>
		<path class="st0" d="M222.1,257.6c-16.4,0-29.7,13.3-29.7,29.7c0,16.4,13.3,29.7,29.7,29.7s29.7-13.3,29.7-29.7
			C251.8,270.9,238.5,257.6,222.1,257.6z M222.1,301.1c-7.6,0-13.8-6.2-13.8-13.8s6.2-13.8,13.8-13.8c7.6,0,13.8,6.2,13.8,13.8
			C235.9,294.9,229.7,301.1,222.1,301.1z"/>
	</g>
</g>
<g>
	<g>
		<path class="st0" d="M66,413.7c-16.4,0-29.7,13.3-29.7,29.7c0,16.4,13.3,29.7,29.7,29.7c16.4,0,29.7-13.3,29.7-29.7
			C95.7,427,82.4,413.7,66,413.7z M66,457.1c-7.6,0-13.8-6.2-13.8-13.8s6.2-13.8,13.8-13.8c7.6,0,13.8,6.2,13.8,13.8
			S73.6,457.1,66,457.1z"/>
	</g>
</g>
<g>
	<g>
		<path class="st0" d="M222.1,413.7c-16.4,0-29.7,13.3-29.7,29.7c0,16.4,13.3,29.7,29.7,29.7s29.7-13.3,29.7-29.7
			S238.5,413.7,222.1,413.7z M222.1,457.1c-7.6,0-13.8-6.2-13.8-13.8s6.2-13.8,13.8-13.8c7.6,0,13.8,6.2,13.8,13.8
			S229.7,457.1,222.1,457.1z"/>
	</g>
</g>
<g>
	<g>
		<path class="st0" d="M502.4,169.8L344.8,12.2c-6.2-6.2-14.4-9.6-23.1-9.6c-8.7,0-16.9,3.4-23.1,9.6L141.1,169.8
			c-6.2,6.2-9.6,14.3-9.6,23.1c0,8.7,3.4,16.9,9.6,23.1l5.3,5.3H32.6c-18,0-32.6,14.6-32.6,32.6v222.9c0,18,14.6,32.6,32.6,32.6
			h222.9c18,0,32.6-14.6,32.6-32.6V363l10.6,10.6c6.2,6.2,14.3,9.6,23.1,9.6c0,0,0,0,0,0c8.7,0,16.9-3.4,23.1-9.6l157.6-157.6
			c6.2-6.2,9.6-14.3,9.6-23.1S508.6,176,502.4,169.8z M272.3,476.7L272.3,476.7c0,9.2-7.5,16.7-16.7,16.7H32.6
			c-9.2,0-16.7-7.5-16.7-16.7V253.8c0-9.2,7.5-16.7,16.7-16.7h222.9c9.2,0,16.7,7.5,16.7,16.7V476.7z M491.2,204.7L333.6,362.3
			c-3.2,3.2-7.4,4.9-11.8,4.9h0c-4.5,0-8.7-1.7-11.8-4.9l-21.8-21.8v-86.7c0-16.9-12.9-30.8-29.3-32.4c-1.1-0.1-2.2-0.2-3.3-0.2
			h-86.7l-16.5-16.5c-3.2-3.2-4.9-7.4-4.9-11.8s1.7-8.7,4.9-11.8L309.9,23.4c3.2-3.2,7.4-4.9,11.8-4.9s8.7,1.7,11.8,4.9L491.2,181
			c3.2,3.2,4.9,7.4,4.9,11.8S494.4,201.6,491.2,204.7z"/>
	</g>
</g>
</svg>
