<?xml version="1.0" encoding="utf-8"?>
<!-- Generator: Adobe Illustrator 20.1.0, SVG Export Plug-In . SVG Version: 6.00 Build 0)  -->
<svg version="1.1" id="Capa_1" xmlns="http://www.w3.org/2000/svg" xmlns:xlink="http://www.w3.org/1999/xlink" x="0px" y="0px"
	 viewBox="0 0 512 512" style="enable-background:new 0 0 512 512;" xml:space="preserve">
<style type="text/css">
	.st0{fill:#FFFFFF;}
</style>
<g>
	<path class="st0" d="M184,224c4.4,0,8-3.6,8-8s-3.6-8-8-8H40c-4.4,0-8,3.6-8,8s3.6,8,8,8H184z"/>
	<path class="st0" d="M168,184c8.8,0,16-7.2,16-16s-7.2-16-16-16s-16,7.2-16,16S159.2,184,168,184z"/>
	<path class="st0" d="M56,72c8.8,0,16-7.2,16-16s-7.2-16-16-16s-16,7.2-16,16S47.2,72,56,72z"/>
	<path class="st0" d="M112,128c8.8,0,16-7.2,16-16s-7.2-16-16-16s-16,7.2-16,16S103.2,128,112,128z"/>
	<path class="st0" d="M168,248c-8.8,0-16,7.2-16,16s7.2,16,16,16s16-7.2,16-16C184,255.2,176.8,248,168,248z"/>
	<path class="st0" d="M168,360c-8.8,0-16,7.2-16,16s7.2,16,16,16s16-7.2,16-16S176.8,360,168,360z"/>
	<path class="st0" d="M56,248c-8.8,0-16,7.2-16,16s7.2,16,16,16s16-7.2,16-16C72,255.2,64.8,248,56,248z"/>
	<path class="st0" d="M56,360c-8.8,0-16,7.2-16,16s7.2,16,16,16s16-7.2,16-16S64.8,360,56,360z"/>
	<path class="st0" d="M488,288H224V24c0-13.2-10.8-24-24-24H24C10.8,0,0,10.8,0,24v384c0,13.2,10.8,24,24,24h56v56
		c0,13.2,10.8,24,24,24h384c13.2,0,24-10.8,24-24V312C512,298.8,501.2,288,488,288z M16,408V24c0-4.4,3.6-8,8-8h176c4.4,0,8,3.6,8,8
		v384c0,4.4-3.6,8-8,8H24C19.6,416,16,412.4,16,408z M496,488c0,4.4-3.6,8-8,8H104c-4.4,0-8-3.6-8-8v-56h104c13.2,0,24-10.8,24-24
		V304h264c4.4,0,8,3.6,8,8V488z"/>
	<path class="st0" d="M296,320c-4.4,0-8,3.6-8,8v144c0,4.4,3.6,8,8,8s8-3.6,8-8V328C304,323.6,300.4,320,296,320z"/>
	<path class="st0" d="M248,328c-8.8,0-16,7.2-16,16s7.2,16,16,16c8.8,0,16-7.2,16-16S256.8,328,248,328z"/>
	<path class="st0" d="M136,440c-8.8,0-16,7.2-16,16s7.2,16,16,16s16-7.2,16-16S144.8,440,136,440z"/>
	<path class="st0" d="M344,328c-8.8,0-16,7.2-16,16s7.2,16,16,16s16-7.2,16-16S352.8,328,344,328z"/>
	<path class="st0" d="M456,328c-8.8,0-16,7.2-16,16s7.2,16,16,16s16-7.2,16-16S464.8,328,456,328z"/>
	<path class="st0" d="M400,384c-8.8,0-16,7.2-16,16s7.2,16,16,16s16-7.2,16-16S408.8,384,400,384z"/>
	<path class="st0" d="M344,440c-8.8,0-16,7.2-16,16s7.2,16,16,16s16-7.2,16-16S352.8,440,344,440z"/>
	<path class="st0" d="M456,440c-8.8,0-16,7.2-16,16s7.2,16,16,16s16-7.2,16-16S464.8,440,456,440z"/>
</g>
</svg>
