<?xml version="1.0" encoding="utf-8"?>
<!-- Generator: Adobe Illustrator 20.1.0, SVG Export Plug-In . SVG Version: 6.00 Build 0)  -->
<svg version="1.1" id="Capa_1" xmlns="http://www.w3.org/2000/svg" xmlns:xlink="http://www.w3.org/1999/xlink" x="0px" y="0px"
	 viewBox="0 0 475.3 475.3" style="enable-background:new 0 0 475.3 475.3;" xml:space="preserve">
<style type="text/css">
	.st0{fill:#FFFFFF;}
</style>
<g id="XMLID_12_">
	<path id="XMLID_29_" class="st0" d="M155.7,185.5c18.6,0,33.8-15.1,33.8-33.7c0-18.7-15.1-33.8-33.8-33.8
		c-18.6,0-33.8,15.1-33.8,33.8C122,170.4,137.1,185.5,155.7,185.5z"/>
	<path id="XMLID_28_" class="st0" d="M291.4,121.2c-18.6,0-33.8,15.1-33.8,33.8c0,18.6,15.1,33.7,33.8,33.7
		c18.6,0,33.8-15.1,33.8-33.7C325.1,136.3,310,121.2,291.4,121.2z"/>
	<path id="XMLID_27_" class="st0" d="M155.7,106.2c19.9,0,36.7,12.9,42.9,30.8c3.8-4.5,9.1-7.5,15-8.7c-6.9-8-11.2-18.2-11.2-29.6
		c0-8.7,2.6-16.7,6.8-23.6c-2.3-1.5-5.8-2.4-7.2-2.4h-45.2c-6.4,0-11.8,1.8-14.4,7.6L125,118.4C133.8,110.3,145.7,106.2,155.7,106.2
		z"/>
	<path id="XMLID_26_" class="st0" d="M179.4,67c16.3,0,29.5-13.2,29.5-29.5c0-16.3-13.2-29.5-29.5-29.5c-16.3,0-29.5,13.2-29.5,29.5
		C149.9,53.8,163.1,67,179.4,67z"/>
	<path id="XMLID_25_" class="st0" d="M349.2,131.5c-6.9-8-11.2-18.2-11.2-29.6c0-0.3,0.1-0.7,0.1-1h-40.8c-0.1,0-3.5,0.6-4.1,0.8
		c-0.2,2.6-0.5,5.2-1.1,7.7c19.6,0.3,36.1,13.1,42.2,30.7C338,135.6,343.3,132.7,349.2,131.5z"/>
	<path id="XMLID_24_" class="st0" d="M320.6,95.1c7.7,0,14.6-2.9,19.9-7.6c2.1-6.3,5.5-12,10-16.7c0.4-2,0.6-4.1,0.6-6.2
		c0-16.9-13.7-30.5-30.6-30.5c-16.9,0-30.5,13.7-30.5,30.5C290.1,81.4,303.7,95.1,320.6,95.1z"/>
	<path id="XMLID_23_" class="st0" d="M222.1,139c-7.5,0-13.6,2.1-16.5,8.6l-5,11c-1.3,8.5-4.9,16.1-10.2,22.3l-0.2,0.4
		c7,1.4,13,5.6,16.8,11.7c0.6,0.9,1.3,1.7,1.8,2.8l15.5,34l14-30.8c3.5-7.6,10.5-12.8,18.7-14.4c-6.9-8-11.2-18.2-11.2-29.6
		c0-5.6,1.2-11,3.1-16C217.8,139,228.5,139,222.1,139z"/>
	<path id="XMLID_22_" class="st0" d="M227.7,337.4c-5.7,3.4-12.6,4.8-19.2,3.4v60c2.7,6.1,8.7,10.3,15.8,10.3
		c6.2,0,11.3-3.4,14.4-8.2v-65.3C235,338.3,231.3,338.2,227.7,337.4z"/>
	<path id="XMLID_21_" class="st0" d="M247.9,132.5c1.5,0,2.9-0.3,4.4-0.4c5.9-10,15.5-17.5,26.9-20.7c1.6-3.9,2.5-8.1,2.5-12.6
		c0-18.7-15.1-33.8-33.8-33.8c-18.6,0-33.8,15.1-33.8,33.8C214.1,117.3,229.3,132.5,247.9,132.5z"/>
	<path id="XMLID_20_" class="st0" d="M53.9,321.2c-2.5-6.6-2.2-13.7,0.7-20L72.9,261l29.8-65.3c3.3-7.2,9.8-12.3,17.3-14.2v-1.8
		c-5.5-7-8.9-15.5-9.5-24.8c-0.6-0.2-4-0.8-4.1-0.8H59.7c-6.6,0-12.2,1.9-14.9,7.8L1.2,257.2c-3,6.6-0.1,14.3,6.5,17.3
		c6.6,3,14.3,0.1,17.3-6.5L46,221.9c0,3.8,0,60.8,0,162.6c0,8.7,7,15.7,15.7,15.7c8.7,0,15.7-7,15.7-15.7v-46.4
		c-3.3-0.1-6.6-0.8-9.8-2.2C61.2,333,56.3,327.8,53.9,321.2z"/>
	<path id="XMLID_19_" class="st0" d="M88.7,335.8v48.7c0,8.2,6.3,14.6,14.3,15.4v-78.6l-0.8,1.7C99.6,328.9,94.6,333.3,88.7,335.8z"
		/>
	<path id="XMLID_18_" class="st0" d="M83,148.1c16.9,0,30.5-13.7,30.5-30.5C113.6,100.7,99.9,87,83,87c-16.9,0-30.6,13.7-30.6,30.5
		C52.5,134.4,66.2,148.1,83,148.1z"/>
	<path id="XMLID_17_" class="st0" d="M190.2,304.4l6.5-14.1v-23.2l5.3,11.6l15.9-34.8l-19.8-43.3c-3-6.6-9.2-8.6-16.5-8.6
		c-113,0,27.2,0-51.6,0c-7.3,0-13.5,2.1-16.5,8.6L65.3,306.1c-3.3,7.2-0.1,15.8,7.1,19.1c7.2,3.3,15.8,0.2,19.1-7.1l23.3-51
		c0,38.5,0,37,0,179.7c0,9.6,7.8,17.3,17.3,17.3c9.6,0,17.3-7.8,17.3-17.3V343.5h12.6v103.2c0,9.6,7.8,17.3,17.3,17.3
		c9.6,0,17.3-7.8,17.3-17.3v-112c-3.2-2.8-5.7-6.3-7.2-10.3C186.9,317.6,187.6,310.2,190.2,304.4z"/>
	<path id="XMLID_16_" class="st0" d="M474,256.3l-48.1-105.5c-3-6.6-9.2-8.6-16.5-8.6c-112.6,0,27.1,0-51.6,0
		c-7.4,0-13.5,2.1-16.5,8.6l-5,11c-1.3,8.5-4.9,16.1-10.2,22.3l-0.2,0.4c8.6,1.8,15.6,7.9,18.6,14.4l48.1,105.4
		c2.9,6.4,3.2,13.5,0.7,20c-0.8,2.2-2,4.2-3.4,6.1V397c0,9.6,7.8,17.3,17.3,17.3c9.6,0,17.3-7.8,17.3-17.3c0-95.5,0-148.9,0-179.7
		l23.3,51c3.3,7.3,11.9,10.4,19.1,7.1C474.1,272.1,477.3,263.5,474,256.3z"/>
	<path id="XMLID_15_" class="st0" d="M344.8,326.1l-0.8-1.7l0,1V404c2.7,6.1,8.7,10.3,15.8,10.3c9.6,0,17.3-7.8,17.3-17.3v-57.1
		C364.9,344.1,350.3,338.1,344.8,326.1z"/>
	<path id="XMLID_14_" class="st0" d="M383.5,135.7c18.6,0,33.8-15.1,33.8-33.7c0-18.7-15.1-33.8-33.8-33.8
		c-18.6,0-33.8,15.1-33.8,33.8C349.8,120.6,364.9,135.7,383.5,135.7z"/>
	<path id="XMLID_13_" class="st0" d="M333.7,203.8c-3-6.5-9.2-8.6-16.5-8.6c-113,0,27.2,0-51.6,0c-7.4,0-13.5,2.1-16.5,8.6
		l-48.1,105.5c-3.3,7.2-0.1,15.8,7.1,19.1c7.2,3.3,15.8,0.2,19.1-7.1l23.3-51v55c0,0.1,0,0.2,0,0.2V450c0,9.6,7.8,17.3,17.3,17.3
		c9.6,0,17.3-7.8,17.3-17.3V346.7h12.6V450c0,9.6,7.8,17.3,17.3,17.3c9.6,0,17.3-7.8,17.3-17.3V325.5c0-0.1,0-0.1,0-0.2v-55l23.3,51
		c2.4,5.3,7.7,8.4,13.1,8.4c2,0,4-0.4,6-1.3c7.3-3.3,10.4-11.9,7.1-19.1L333.7,203.8z"/>
</g>
</svg>
