<?xml version="1.0" encoding="utf-8"?>
<!-- Generator: Adobe Illustrator 20.1.0, SVG Export Plug-In . SVG Version: 6.00 Build 0)  -->
<svg version="1.1" id="Layer_1" xmlns="http://www.w3.org/2000/svg" xmlns:xlink="http://www.w3.org/1999/xlink" x="0px" y="0px"
	 viewBox="0 0 495.2 495.2" style="enable-background:new 0 0 495.2 495.2;" xml:space="preserve">
<style type="text/css">
	.st0{fill:#FFFFFF;}
</style>
<g id="XMLID_845_">
	<g>
		<g>
			<path class="st0" d="M303.1,45.2v105.2c-13.1-11.9-27.9-21.8-44.1-29.3L281,0l-98.9,24.7L83.2,0l22,121.1
				c-28.6,13.4-53,34-71.1,60.2c-20.9,30.2-32,65.8-32,102.9v211h491v-450C493.1,45.2,303.1,45.2,303.1,45.2z M333.1,75.2h130v40
				h-130V75.2z M182.1,55.7l61.1-15.3l-13.6,74.8h-95L121,40.4L182.1,55.7z M32.1,465.2v-181c0-61.8,36.4-116.1,92.9-139h114.1
				c56.5,22.9,92.9,77.2,92.9,139v181H32.1z M333.1,145.2h130v40h-130V145.2z M463.1,465.2h-101v-40h101V465.2z M463.1,395.2h-101
				v-40h101V395.2z M463.1,325.2h-101v-40h101V325.2z M463.1,255.2H359.8c-2.2-13.8-6-27.2-11.2-40h114.5V255.2z"/>
		</g>
	</g>
</g>
</svg>
