<?xml version="1.0" encoding="utf-8"?>
<!-- Generator: Adobe Illustrator 20.1.0, SVG Export Plug-In . SVG Version: 6.00 Build 0)  -->
<svg version="1.1" id="Capa_1" xmlns="http://www.w3.org/2000/svg" xmlns:xlink="http://www.w3.org/1999/xlink" x="0px" y="0px"
	 viewBox="0 0 321.3 321.3" style="enable-background:new 0 0 321.3 321.3;" xml:space="preserve">
<style type="text/css">
	.st0{fill:#FFFFFF;}
</style>
<g>
	<path class="st0" d="M315.1,152.1l-29.3-20.4l17.4-31.2c1.9-3.4,2.4-7.3,1.3-11.1s-3.5-6.8-6.9-8.7l-41.7-23.2V38.8
		c0-8-6.5-14.6-14.6-14.6h-45.1l-39.4-22c-3.4-1.9-7.3-2.4-11.1-1.3c-3.7,1.1-6.9,3.5-8.8,6.9l-8.2,14.8L114.8,13
		c-3.2-2.2-7.1-3.1-10.9-2.4c-3.8,0.7-7.2,2.8-9.4,6l-5.2,7.5h-9.2c-8,0-14.6,6.5-14.6,14.6v19.6L2.6,149c-2.2,3.2-3.1,7.1-2.4,10.9
		c0.7,3.8,2.8,7.2,6,9.4l29.3,20.4l-17.4,31.2c-1.9,3.4-2.4,7.3-1.3,11.1c1.1,3.8,3.5,6.9,6.9,8.8l41.7,23.2v18.7
		c0,8,6.5,14.6,14.6,14.6h45.1l39.4,21.9c2.2,1.3,4.7,1.8,7.1,1.8c5.1,0,10.1-2.7,12.8-7.5l8.2-14.8l13.9,9.6
		c2.5,1.8,5.4,2.6,8.3,2.6c4.6,0,9.2-2.2,12-6.2l5.2-7.5h9.2c8,0,14.6-6.5,14.6-14.6V263l62.9-90.6
		C323.3,165.8,321.7,156.7,315.1,152.1z M293.6,87.7c1.5,0.9,2.6,2.3,3.1,3.9c0.5,1.7,0.3,3.5-0.6,5l-17,30.5l-23.3-16.2V66.6
		L293.6,87.7z M143.9,11.8c0.9-1.5,2.3-2.6,4-3.1c1.7-0.5,3.5-0.3,5,0.6l26.8,15H137L143.9,11.8z M101.1,21.2c1-1.4,2.5-2.4,4.2-2.7
		c1.7-0.3,3.5,0.1,4.9,1.1l6.7,4.6H99L101.1,21.2z M8.1,158.5c-0.3-1.7,0.1-3.5,1.1-4.9l56.3-81.1v128.3l-54.7-38
		C9.4,161.7,8.4,160.2,8.1,158.5z M27.7,233.7c-1.5-0.9-2.7-2.3-3.1-4c-0.5-1.7-0.3-3.5,0.6-5l17-30.5l23.3,16.2v44.3L27.7,233.7z
		 M177.4,309.6c-1.8,3.2-5.8,4.3-9,2.5l-26.8-15h42.7L177.4,309.6z M220.2,300.1c-2.1,3-6.2,3.7-9.2,1.7l-6.7-4.6h17.9L220.2,300.1z
		 M247.8,282.6c0,3.6-2.9,6.6-6.6,6.6H80.1c-3.6,0-6.6-3-6.6-6.6V38.8c0-3.6,2.9-6.6,6.6-6.6h161.1c3.6,0,6.6,3,6.6,6.6V282.6z
		 M312.2,167.8l-56.4,81.1V120.7l54.7,38C313.5,160.7,314.2,164.8,312.2,167.8z"/>
	<path class="st0" d="M196.5,128.4c-5.1-5.1-11.9-7.9-19.2-7.9c-6.1,0-11.9,2-16.7,5.7c-4.7-3.7-10.5-5.7-16.7-5.7
		c-7.2,0-14.1,2.8-19.2,7.9c-10.6,10.6-10.6,27.8,0,38.4l33,33c0.8,0.8,1.8,1.2,2.8,1.2s2.1-0.4,2.8-1.2l33-33
		C207.1,156.2,207.1,139,196.5,128.4z M190.9,161.1l-30.2,30.2l-30.2-30.2c-7.5-7.5-7.5-19.6,0-27c3.6-3.6,8.4-5.6,13.5-5.6
		c5.1,0,9.9,2,13.5,5.6l0.3,0.3c0.8,0.8,1.8,1.2,2.8,1.2c0,0,0,0,0,0c1.1,0,2.1-0.4,2.8-1.2l0.3-0.3c3.6-3.6,8.4-5.6,13.5-5.6
		c5.1,0,9.9,2,13.5,5.6C198.3,141.5,198.3,153.6,190.9,161.1z"/>
	<path class="st0" d="M124.7,66.5c2.8-2.8,4.3-6.5,4.3-10.5s-1.5-7.7-4.3-10.5c-2.8-2.8-6.5-4.3-10.5-4.3c-2.8,0-5.5,0.8-7.8,2.2
		c-2.3-1.4-5-2.2-7.8-2.2c-4,0-7.7,1.5-10.5,4.3c-2.8,2.8-4.3,6.5-4.3,10.5s1.5,7.7,4.3,10.5L103.6,82c0.8,0.8,1.8,1.2,2.8,1.2
		s2.1-0.4,2.8-1.2l15.3-15.3L124.7,66.5z M119,60.9l-12.6,12.6L93.9,61l-0.1-0.1c-1.3-1.3-2-3-2-4.8c0-1.8,0.7-3.5,2-4.8s3-2,4.8-2
		s3.5,0.7,4.8,2l0.1,0.1c0.7,0.8,1.8,1.2,2.8,1.2c0,0,0,0,0,0c1.1,0,2.1-0.4,2.8-1.2l0.1-0.1c1.3-1.3,3-2,4.8-2s3.5,0.7,4.8,2
		s2,3,2,4.8C121,57.9,120.3,59.6,119,60.9z"/>
	<path class="st0" d="M222.7,238.2c-2.8,0-5.5,0.8-7.8,2.2c-2.3-1.4-5-2.2-7.8-2.2c-4,0-7.7,1.5-10.5,4.3c-2.8,2.8-4.3,6.5-4.3,10.5
		c0,4,1.5,7.7,4.3,10.5l15.5,15.5c0.8,0.8,1.8,1.2,2.8,1.2s2.1-0.4,2.8-1.2l15.3-15.3l0.1-0.1c2.8-2.8,4.3-6.5,4.3-10.5
		s-1.5-7.7-4.3-10.5C230.4,239.7,226.7,238.2,222.7,238.2z M227.5,257.9l-12.6,12.6L202.4,258l-0.1-0.1c-1.3-1.3-2-3-2-4.8
		c0-1.8,0.7-3.5,2-4.8s3-2,4.8-2s3.5,0.7,4.8,2l0.1,0.1c0.7,0.8,1.8,1.2,2.8,1.2c0,0,0,0,0,0c1.1,0,2.1-0.4,2.8-1.2l0.1-0.1
		c1.3-1.3,3-2,4.8-2s3.5,0.7,4.8,2s2,3,2,4.8C229.5,254.9,228.8,256.6,227.5,257.9z"/>
</g>
</svg>
