<?xml version="1.0" encoding="utf-8"?>
<!-- Generator: Adobe Illustrator 20.1.0, SVG Export Plug-In . SVG Version: 6.00 Build 0)  -->
<svg version="1.1" id="Capa_1" xmlns="http://www.w3.org/2000/svg" xmlns:xlink="http://www.w3.org/1999/xlink" x="0px" y="0px"
	 viewBox="0 0 392.1 392.1" style="enable-background:new 0 0 392.1 392.1;" xml:space="preserve">
<style type="text/css">
	.st0{fill:#FFFFFF;}
</style>
<g>
	<path class="st0" d="M212.6,300h40.8v-39.3h-40.8V300z M220.6,268.7h24.8V292h-24.8V268.7z"/>
	<rect x="224.7" y="276.3" class="st0" width="16.6" height="8"/>
	<rect x="100.9" y="230" class="st0" width="16.6" height="8"/>
	<rect x="133.9" y="230" class="st0" width="16.6" height="8"/>
	<rect x="166.9" y="230" class="st0" width="16.6" height="8"/>
	<rect x="199.8" y="230" class="st0" width="16.6" height="8"/>
	<rect x="232.8" y="230" class="st0" width="16.6" height="8"/>
	<path class="st0" d="M253.4,113.1H96.9v93h156.5V113.1z M245.4,198.1H104.9v-77h140.5V198.1z"/>
	<path class="st0" d="M148.4,130.7H111v57.8h37.4V130.7z M140.4,138.7v4.2H119v-4.2H140.4z M140.4,150.9v17.3H119v-17.3H140.4z
		 M119,180.5v-4.2h21.4v4.2H119z"/>
	<path class="st0" d="M193.9,130.7h-37.4v57.8h37.4L193.9,130.7L193.9,130.7z M185.9,138.7v4.2h-21.4v-4.2H185.9z M185.9,150.9v17.3
		h-21.4v-17.3H185.9z M164.5,180.5v-4.2h21.4v4.2H164.5z"/>
	<path class="st0" d="M239.4,130.7H202v57.8h37.4V130.7z M231.4,138.7v4.2H210v-4.2H231.4z M231.4,150.9v17.3H210v-17.3H231.4z
		 M210,180.5v-4.2h21.4v4.2H210z"/>
	<path class="st0" d="M109.1,106.1h132.1c2,0,3.8-1,4.9-2.6c1.1-1.6,1.4-3.7,0.7-5.5c-11.2-29.5-40-49.3-71.6-49.3
		c-31.6,0-60.4,19.8-71.6,49.3c-0.7,1.8-0.5,3.9,0.7,5.5C105.3,105.1,107.2,106.1,109.1,106.1z M175.2,56.7
		c27.3,0,52.3,16.5,63,41.4H112.2C122.9,73.2,147.9,56.7,175.2,56.7z"/>
	<path class="st0" d="M96.9,260.7V300h108.4v-39.3H96.9z M171.8,268.7c-4.4,7-12.1,11.3-20.6,11.3c-8.5,0-16.2-4.4-20.6-11.3H171.8z
		 M197.3,292h-92.4v-23.3h16.5c5.1,11.7,16.7,19.3,29.7,19.3c13,0,24.5-7.7,29.7-19.3h16.5V292z"/>
	<path class="st0" d="M302.8,125.5c-1.4-0.5-2.9-0.8-4.5-0.8c-5.6,0-10.7,3.6-12.6,8.9c-2,5.6,0,11.7,4.6,15.1l-14.4,40.6h-5.9
		v-64.5c0-45.8-32.6-84.1-75.9-92.9V18.9c0-10.4-8.5-18.9-18.9-18.9s-18.9,8.5-18.9,18.9V32c-43.2,8.8-75.9,47.1-75.9,92.9v254.3
		c0,7.2,5.8,13,13,13H257c7.2,0,13-5.8,13-13V245.3h15.8c6.9,0,12.4-5.6,12.4-12.4v-31.1c0-6.9-5.6-12.4-12.4-12.4h-1.4l13.5-38
		c0.2,0,0.3,0,0.5,0l0,0c5.6,0,10.7-3.6,12.6-8.9C313.3,135.6,309.7,127.9,302.8,125.5z M261.9,243.3H88.4v-18h173.5V243.3z
		 M164.3,18.9c0-6,4.9-10.9,10.9-10.9c6,0,10.9,4.9,10.9,10.9v11.8c-3.6-0.4-7.2-0.6-10.9-0.6c-3.7,0-7.3,0.2-10.9,0.6V18.9z
		 M175.2,38.1c47.8,0,86.7,38.9,86.7,86.7v64.5v28H88.4v-92.5C88.4,77,127.4,38.1,175.2,38.1z M257,384.1H93.4c-2.7,0-5-2.2-5-5
		V251.3h173.5v127.8C261.9,381.8,259.7,384.1,257,384.1z M285.7,237.3h-15.8V212h20.2v20.9C290.2,235.3,288.2,237.3,285.7,237.3z
		 M290.2,201.8v2.2h-20.2v-6.7h15.8C288.2,197.3,290.2,199.3,290.2,201.8z M303.3,139.8c-0.8,2.1-2.8,3.6-5,3.6
		c-0.6,0-1.2-0.1-1.8-0.3c-2.8-1-4.2-4-3.2-6.8c0.8-2.1,2.8-3.6,5-3.6c0.6,0,1.2,0.1,1.8,0.3C302.9,134,304.3,137,303.3,139.8z"/>
</g>
</svg>
