<?xml version="1.0" encoding="utf-8"?>
<!-- Generator: Adobe Illustrator 20.1.0, SVG Export Plug-In . SVG Version: 6.00 Build 0)  -->
<svg version="1.1" id="Layer_1" xmlns="http://www.w3.org/2000/svg" xmlns:xlink="http://www.w3.org/1999/xlink" x="0px" y="0px"
	 viewBox="0 0 290.6 290.6" style="enable-background:new 0 0 290.6 290.6;" xml:space="preserve">
<style type="text/css">
	.st0{fill:#FFFFFF;}
</style>
<g>
	<g>
		<g>
			<path class="st0" d="M285.9,70.3c-7.8,0-14.1-6.3-14.1-14.1v-4.7H18.8v4.7c0,7.8-6.3,14.1-14.1,14.1H0v150h4.7
				c7.8,0,14.1,6.3,14.1,14.1v4.7h253.1v-4.7c0-7.8,6.3-14.1,14.1-14.1h4.7v-150H285.9z M281.2,84.4h-9.4v9.4h9.4v9.4h-9.4v9.4h9.4
				v9.4h-9.4v9.4h9.4v9.4h-9.4v9.4h9.4v9.4h-9.4v9.4h9.4v9.4h-9.4v9.4h9.4v9.4h-9.4v9.4h9.4v5.2c-9.2,1.9-16.4,9.1-18.3,18.3H27.7
				c-1.9-9.2-9.1-16.4-18.3-18.3v-5.2h9.4v-9.4H9.4v-9.4h9.4v-9.4H9.4v-9.4h9.4v-9.4H9.4V150h9.4v-9.4H9.4v-9.4h9.4v-9.4H9.4v-9.4
				h9.4v-9.4H9.4v-9.4h9.4v-9.4H9.4v-5.2c9.2-1.9,16.4-9.1,18.3-18.3H263c1.9,9.2,9.1,16.4,18.3,18.3V84.4z"/>
			<path class="st0" d="M243.8,75H46.9c-7.8,0-14.1,6.3-14.1,14.1v112.5c0,7.8,6.3,14.1,14.1,14.1h196.9c7.8,0,14.1-6.3,14.1-14.1
				V89.1C257.8,81.3,251.5,75,243.8,75z M60.9,206.2H46.9c-2.6,0-4.7-2.1-4.7-4.7V89.1c0-2.6,2.1-4.7,4.7-4.7h14.1V206.2z
				 M220.3,206.2h-150V84.4h150V206.2z M248.4,201.6c0,2.6-2.1,4.7-4.7,4.7h-14.1V84.4h14.1c2.6,0,4.7,2.1,4.7,4.7V201.6z"/>
			<rect x="84.4" y="117.2" class="st0" width="121.9" height="9.4"/>
			<rect x="84.4" y="140.6" class="st0" width="121.9" height="9.4"/>
			<rect x="196.9" y="164.1" class="st0" width="9.4" height="9.4"/>
			<rect x="84.4" y="164.1" class="st0" width="103.1" height="9.4"/>
		</g>
	</g>
</g>
</svg>
